<?xml version="1.0" encoding="UTF-8" standalone="no"?>
<!-- Created with Inkscape (http://www.inkscape.org/) -->

<svg
   width="211.66661mm"
   height="113.76994mm"
   viewBox="0 0 211.66661 113.76994"
   version="1.1"
   id="svg1"
   xml:space="preserve"
   inkscape:version="1.4.2 (ebf0e940d0, 2025-05-08)"
   sodipodi:docname="modelo_preview.svg"
   xmlns:inkscape="http://www.inkscape.org/namespaces/inkscape"
   xmlns:sodipodi="http://sodipodi.sourceforge.net/DTD/sodipodi-0.dtd"
   xmlns:xlink="http://www.w3.org/1999/xlink"
   xmlns="http://www.w3.org/2000/svg"
   xmlns:svg="http://www.w3.org/2000/svg"><sodipodi:namedview
     id="namedview1"
     pagecolor="#ffffff"
     bordercolor="#000000"
     borderopacity="0.25"
     inkscape:showpageshadow="2"
     inkscape:pageopacity="0.0"
     inkscape:pagecheckerboard="0"
     inkscape:deskcolor="#d1d1d1"
     inkscape:document-units="mm"
     inkscape:zoom="1.3166807"
     inkscape:cx="324.68008"
     inkscape:cy="191.77011"
     inkscape:window-width="1920"
     inkscape:window-height="997"
     inkscape:window-x="0"
     inkscape:window-y="0"
     inkscape:window-maximized="1"
     inkscape:current-layer="layer1" /><defs
     id="defs1"><linearGradient
       id="linearGradient2"
       inkscape:collect="always"><stop
         style="stop-color:#00f0ad;stop-opacity:0.80221146;"
         offset="0"
         id="stop2" /><stop
         style="stop-color:#255555;stop-opacity:0.13978475;"
         offset="1"
         id="stop3" /></linearGradient><linearGradient
       inkscape:collect="always"
       xlink:href="#linearGradient2"
       id="linearGradient5"
       x1="73.165009"
       y1="199.06395"
       x2="105.77126"
       y2="143.96768"
       gradientUnits="userSpaceOnUse"
       gradientTransform="matrix(1.33421,0,0,1.33421,-6.0834492,-67.019402)" /></defs><g
     inkscape:label="Layer 1"
     inkscape:groupmode="layer"
     id="layer1"
     transform="translate(-16.614972,-87.819185)"><path
       id="path1"
       style="fill:url(#linearGradient5);fill-opacity:1;stroke:#66ffcc;stroke-width:0.264583;stroke-dasharray:none;stroke-opacity:0.56015474"
       d="m 106.98823,112.04669 c -20.925764,-0.70275 -43.775065,6.99521 -59.38217,36.23865 0,0 -10.308067,-2.4665 -18.957724,4.17062 -8.649671,6.63712 -10.074571,34.84454 -10.074571,34.84454 h 16.867248 c 2.541091,7.68649 9.724464,12.87738 17.820096,12.87727 5.930956,1e-5 11.512929,-2.80337 15.054626,-7.56075 3.557174,3.91591 8.601818,6.14868 13.892168,6.14872 7.543469,1e-5 14.353895,-4.51629 17.289201,-11.46524 h 28.040836 c 2.54101,7.68625 9.72404,12.87709 17.81942,12.87727 5.74723,8e-5 11.17769,-2.63309 14.73677,-7.14569 3.53698,3.66423 8.41119,5.73376 13.50401,5.73366 7.54347,1e-5 14.35389,-4.51629 17.2892,-11.46524 h 16.34463 c 0,0 -5.3808,-26.84612 -14.00386,-33.46284 -8.62307,-6.61672 -20.8786,-6.06667 -20.8786,-6.06667 -25.94902,-31.00837 -43.01815,-34.97395 -65.36128,-35.7243 z"
       sodipodi:nodetypes="scsccccccccccccscs" /><path
       style="font-size:13.8536px;font-family:Sacramento;-inkscape-font-specification:Sacramento;fill:#abefe1;fill-opacity:1;stroke-width:0.577234"
       d="m 73.113946,131.52716 q 0.50177,0.64667 0.65402,1.35047 0.14812,0.69846 -0.023,1.40487 -0.17523,0.70105 -0.65122,1.37864 -0.48015,0.67222 -1.2337,1.25692 -0.0909,0.0705 -0.19765,0.0763 -0.10557,-0.004 -0.18439,-0.10519 -0.0622,-0.0801 -0.049,-0.18456 0.0132,-0.1044 0.0987,-0.17075 0.67338,-0.5225 1.10893,-1.10876 0.43555,-0.58626 0.59881,-1.1924 0.15911,-0.61149 0.0382,-1.21975 -0.12093,-0.60825 -0.56049,-1.17474 -0.44786,-0.57719 -1.05272,-0.82706 -0.59952,-0.25402 -1.29964,-0.20737 -0.69479,0.0425 -1.45516,0.37566 -0.75504,0.329 -1.51393,0.91785 -0.71613,0.55567 -1.29829,1.19576 -0.5768,0.63592 -0.9988,1.30585 -0.422,0.66992 -0.67611,1.34656 -0.24877,0.6725 -0.31831,1.30011 -0.0642,0.62347 0.0627,1.18426 0.12276,0.55545 0.4628,0.99369 0.29858,0.38479 0.65611,0.56971 0.35754,0.18492 0.73009,0.21265 0.37377,0.0179 0.73698,-0.10951 0.36324,-0.12774 0.67855,-0.3724 0.3741,-0.29027 0.60049,-0.59437 0.23174,-0.30824 0.35483,-0.55787 0.12844,-0.25378 0.17313,-0.41688 0.0405,-0.16845 0.0429,-0.18743 0.0132,-0.1044 0.0933,-0.16661 0.0802,-0.0622 0.18871,-0.0437 0.10973,0.009 0.17195,0.0892 0.0705,0.0909 0.0478,0.19406 -0.002,0.019 -0.0519,0.22005 -0.0441,0.19692 -0.18925,0.50644 -0.14392,0.30004 -0.41131,0.66163 -0.26739,0.3616 -0.70563,0.70164 -0.40082,0.31102 -0.87325,0.46353 -0.46708,0.14839 -0.93989,0.11283 -0.4716,-0.045 -0.91511,-0.27455 -0.44232,-0.239 -0.7948,-0.69327 -0.38565,-0.49702 -0.5392,-1.11422 -0.15235,-0.62667 -0.0946,-1.31362 0.059,-0.69646 0.32024,-1.43005 0.25714,-0.73892 0.70531,-1.46341 0.44402,-0.72982 1.06598,-1.4179 0.61781,-0.69343 1.39273,-1.29472 0.84975,-0.65934 1.70983,-1.01848 0.86007,-0.35914 1.64977,-0.38967 0.79503,-0.0346 1.48467,0.26927 0.6855,0.29862 1.1997,0.96131 z m -4.16146,1.19128 q 0.0802,-0.0622 0.18456,-0.049 0.10558,0.004 0.1761,0.0945 0.0415,0.0535 0.0426,0.12107 0.007,0.0635 -0.007,0.13408 -0.11682,0.46737 -0.087,0.88092 0.0351,0.40941 0.18359,0.79937 0.14967,0.38046 0.39129,0.75806 0.24697,0.37347 0.54554,0.75826 l 0.52251,0.67338 q 0.5142,0.66269 0.86108,1.35248 0.34272,0.68446 0.4078,1.35316 0.0704,0.66456 -0.19667,1.29134 -0.26296,0.63214 -0.97375,1.18367 -0.32066,0.24881 -0.69283,0.40916 -0.36268,0.16155 -0.7472,0.22874 -0.38867,0.0618 -0.78436,0.0264 -0.39568,-0.0354 -0.76869,-0.17412 -0.0273,-0.0131 -0.0587,-0.0315 -0.0356,-0.0238 -0.0563,-0.0505 -0.0581,-0.0748 -0.0502,-0.17507 0.009,-0.10975 0.0999,-0.18024 0.0534,-0.0415 0.12108,-0.0426 0.0688,-0.0106 0.13409,0.007 0.71111,0.21025 1.3306,0.11486 0.61535,-0.10074 1.16582,-0.52787 0.63062,-0.48932 0.84779,-1.026 0.21836,-0.54616 0.13181,-1.12115 -0.0854,-0.58448 -0.42402,-1.18645 -0.33332,-0.60613 -0.80606,-1.21538 l -0.52665,-0.67873 q -0.27783,-0.35807 -0.54019,-0.7624 -0.26651,-0.40966 -0.43626,-0.86016 -0.16856,-0.45999 -0.20775,-0.95186 -0.038,-0.50137 0.13588,-1.03869 0.0131,-0.0273 0.0369,-0.0629 0.0238,-0.0356 0.0451,-0.0521 z m 7.54242,1.43304 q 0.0766,0.168 0.13078,0.32632 0.0505,0.15265 0.0827,0.27691 0.0341,0.11491 0.0519,0.19207 0.0177,0.0771 0.0157,0.0865 0.0278,0.16736 -0.11413,0.2593 -0.0795,0.0514 -0.18439,0.0388 -0.10858,-0.0184 -0.16742,-0.10917 -0.0221,-0.034 -0.0217,-0.0585 3.2e-4,-0.0244 -0.0101,-0.0902 -0.0104,-0.0658 -0.0536,-0.2071 -0.0432,-0.14129 -0.15388,-0.4242 -0.0965,0.0625 -0.20239,0.12304 -0.10587,0.0605 -0.2131,0.0816 -0.1129,0.0248 -0.21747,-0.0125 -0.10458,-0.037 -0.18917,-0.16762 -0.0625,-0.0966 -0.11239,-0.29793 -0.0555,-0.19775 -0.0677,-0.41556 -0.0121,-0.21781 0.0279,-0.4049 0.0363,-0.19278 0.14987,-0.26633 0.13059,-0.0846 0.27259,-0.0396 0.14768,0.0413 0.28504,0.15388 0.13368,0.10682 0.25,0.24909 0.12201,0.13858 0.19556,0.25213 0.0965,-0.0625 0.18735,-0.12136 0.0928,-0.0682 0.178,-0.12335 0.32362,-0.20962 0.58588,-0.17801 0.26226,0.0316 0.47188,0.35523 0.0846,0.13058 0.15949,0.28354 0.0749,0.15298 0.15149,0.32098 0.0729,0.16232 0.15149,0.32097 0.0786,0.15864 0.17052,0.30059 0.13239,0.20438 0.27743,0.30386 0.14136,0.0938 0.278,0.11813 0.13665,0.0243 0.25523,-0.004 0.11491,-0.0341 0.19439,-0.0856 0.24413,-0.15814 0.3569,-0.45686 0.11278,-0.2987 0.15103,-0.63781 0.0346,-0.34478 0.0147,-0.68653 -0.0142,-0.34542 -0.039,-0.59529 -0.005,-0.0695 0.028,-0.13098 0.0327,-0.0615 0.0895,-0.0982 0.10219,-0.0662 0.2031,-0.0349 0.0972,0.0257 0.14872,0.10511 0.0368,0.0568 0.0435,0.1169 0.0202,0.31736 0.0354,0.72659 0.0172,0.39988 -0.0387,0.79879 -0.0559,0.39891 -0.22012,0.7551 -0.15852,0.35253 -0.48781,0.56582 -0.20439,0.1324 -0.43756,0.1706 -0.22948,0.0438 -0.45768,-0.01 -0.22619,-0.0631 -0.44175,-0.22162 -0.21923,-0.16425 -0.39207,-0.4311 -0.18388,-0.28387 -0.3073,-0.59884 -0.1271,-0.32065 -0.29259,-0.57614 -0.0699,-0.10787 -0.15407,-0.12587 -0.0822,-0.0273 -0.24684,0.0793 -0.0795,0.0514 -0.176,0.11399 -0.0908,0.0589 -0.19504,0.1344 z m -0.65253,-0.17374 q -0.0257,-0.0398 -0.0719,-0.0985 -0.0441,-0.0681 -0.0959,-0.12323 -0.0461,-0.0588 -0.0926,-0.0932 -0.0408,-0.0381 -0.0578,-0.027 -0.017,0.011 -0.016,0.0748 0.003,0.0544 0.0151,0.13529 0.008,0.0751 0.0298,0.158 0.0214,0.0828 0.0395,0.13561 z m 5.42906,-0.42723 q 0.22153,0.0979 0.4757,0.0907 0.25076,-0.0131 0.53126,-0.17664 0.28634,-0.16696 0.44172,-0.43765 0.15197,-0.27655 0.21534,-0.61104 0.0634,-0.3345 0.0552,-0.69774 -0.008,-0.36324 -0.0456,-0.70945 -0.008,-0.0813 0.0273,-0.1412 0.0322,-0.0657 0.0964,-0.1032 0.0993,-0.0579 0.19866,-0.0219 0.10517,0.0327 0.15287,0.11446 0.017,0.0292 0.0248,0.056 0.004,0.0209 0.006,0.0511 0.11469,1.12334 -0.10214,1.8527 -0.21098,0.72594 -0.80607,1.08857 -0.38568,0.22489 -0.75477,0.2365 -0.36567,0.0174 -0.68312,-0.11064 -0.32085,-0.13396 -0.58228,-0.38088 -0.26142,-0.24692 -0.43519,-0.54494 -0.17377,-0.29804 -0.25015,-0.5902 -0.0705,-0.29557 -0.0452,-0.56093 0.0312,-0.26878 0.15688,-0.48299 0.13151,-0.21763 0.35942,-0.35051 0.1344,-0.0783 0.29704,-0.0949 0.16507,-0.0258 0.33158,0.0181 0.16311,0.038 0.31257,0.14663 0.14947,0.10857 0.25849,0.29561 0.1397,0.23959 0.18055,0.49767 0.0409,0.25807 3.8e-4,0.5244 -0.0346,0.26293 -0.14472,0.53071 -0.1101,0.26778 -0.27327,0.51169 z m -0.39678,-0.27762 q 0.13686,-0.18159 0.21481,-0.38364 0.0838,-0.20547 0.1072,-0.40705 0.0234,-0.20158 -0.007,-0.38758 -0.0336,-0.19186 -0.12555,-0.34964 -0.10222,-0.17531 -0.24098,-0.21185 -0.14218,-0.0423 -0.25905,0.0257 -0.15778,0.092 -0.2177,0.24438 -0.0599,0.15239 -0.0483,0.33353 0.0117,0.18114 0.0788,0.37689 0.0696,0.1865 0.1684,0.35597 0.0613,0.10518 0.14701,0.21183 0.0915,0.10321 0.18207,0.1914 z m 4.59529,-3.60121 q 0.1253,0.46777 0.14459,0.92138 0.0162,0.4476 -0.0379,0.81717 -0.0481,0.36651 -0.16068,0.62167 -0.11262,0.25515 -0.24497,0.33805 -0.15658,0.0801 -0.42939,0.0221 -0.26679,-0.0611 -0.58314,-0.24877 -0.31341,-0.19679 -0.62499,-0.52369 -0.31158,-0.32689 -0.54262,-0.77856 -0.20332,-0.39748 -0.24181,-0.63612 -0.0325,-0.24173 -0.0298,-0.28108 0.002,-0.0696 0.0352,-0.12436 0.0388,-0.0579 0.10505,-0.0917 0.10238,-0.0524 0.19956,-0.0109 0.0941,0.0354 0.13724,0.11974 0.0308,0.0602 0.0283,0.1147 9e-5,0.0151 0.029,0.19033 0.0288,0.1752 0.18286,0.47632 0.18176,0.35531 0.40805,0.61946 0.2263,0.26415 0.43958,0.42859 0.21327,0.16443 0.38637,0.23545 0.17603,0.0619 0.24833,0.0246 0.0482,-0.0247 0.0923,-0.16118 0.0502,-0.13963 0.0724,-0.34858 0.0283,-0.21203 0.0258,-0.48427 0.004,-0.27534 -0.0355,-0.57448 -0.0361,-0.30825 -0.1267,-0.61903 -0.0876,-0.31987 -0.23859,-0.61496 -0.0308,-0.0603 -0.0645,-0.11135 -0.0308,-0.0602 -0.0616,-0.12045 -0.0524,-0.1024 -0.026,-0.19943 0.0293,-0.10615 0.13166,-0.15852 0.0783,-0.0401 0.16316,-0.0227 0.0909,0.0141 0.15208,0.0894 -0.003,-0.006 0.0734,0.0841 0.0764,0.0901 0.21383,0.22493 0.14032,0.12577 0.32013,0.26934 0.18583,0.14048 0.38945,0.24148 0.20656,0.0919 0.42462,0.11707 0.21805,0.0252 0.42883,-0.0826 0.11443,-0.0585 0.17409,-0.14985 0.0597,-0.0913 0.0831,-0.17924 0.0234,-0.0879 0.0198,-0.15448 0.002,-0.0696 -6.7e-4,-0.0756 -0.01,-0.0785 0.0259,-0.14242 0.0387,-0.073 0.11092,-0.10994 0.0964,-0.0493 0.19957,-0.0109 0.10013,0.0323 0.14634,0.12269 0.0216,0.0421 0.0251,0.0936 0.007,0.10279 -0.01,0.24816 -0.0108,0.14229 -0.0699,0.2941 -0.0591,0.15181 -0.17578,0.29506 -0.11373,0.13416 -0.2944,0.22657 -0.21078,0.10782 -0.42842,0.12797 -0.22072,0.0142 -0.42978,-0.0236 -0.20615,-0.0465 -0.40053,-0.12944 -0.19746,-0.0889 -0.35878,-0.19637 z m 1.48871,-4.21438 q 0.10408,0.23504 0.011,0.47599 -0.0896,0.23203 -0.32464,0.3361 -0.23503,0.10408 -0.47324,0.0172 -0.23477,-0.0958 -0.33885,-0.33082 -0.052,-0.11752 -0.0526,-0.23565 -0.003,-0.12433 0.0381,-0.23141 0.0448,-0.11601 0.12459,-0.20314 0.086,-0.0899 0.2035,-0.1419 0.11751,-0.052 0.23565,-0.0526 0.12432,-0.003 0.23415,0.0443 0.11327,0.0386 0.20313,0.12459 0.0871,0.0798 0.13916,0.19731 z m 0.60302,4.06821 q -0.3944,-0.89066 -0.67474,-1.82444 -0.026,-0.092 0.008,-0.18131 0.0379,-0.0982 0.14306,-0.14473 0.0928,-0.0411 0.18751,0.005 0.092,0.0406 0.13306,0.13343 0.0164,0.0371 0.08,0.23089 0.0698,0.19103 0.1601,0.46176 0.0937,0.2618 0.20391,0.56072 0.11362,0.29 0.22044,0.53122 0.14517,0.32781 0.2974,0.50453 0.15568,0.1678 0.30395,0.2353 0.15444,0.0648 0.28221,0.0526 0.13396,-0.0149 0.2391,-0.0614 0.17318,-0.0767 0.30396,-0.28257 0.13078,-0.20586 0.22391,-0.51343 0.0993,-0.31032 0.16031,-0.70722 0.0582,-0.40309 0.0802,-0.87147 0.004,-0.0755 0.0455,-0.13113 0.0392,-0.0617 0.10726,-0.0919 0.099,-0.0438 0.19369,0.003 0.10091,0.0441 0.13925,0.13069 0.0274,0.0619 0.0218,0.1161 -0.0112,0.17513 -0.0321,0.42854 -0.021,0.2534 -0.0673,0.53289 -0.0464,0.27948 -0.12371,0.57265 -0.0739,0.28424 -0.18892,0.54233 -0.11779,0.2519 -0.28153,0.45018 -0.16373,0.19827 -0.38021,0.29413 -0.27833,0.12326 -0.54067,0.0989 -0.26232,-0.0245 -0.49842,-0.15659 -0.2299,-0.13492 -0.4219,-0.36801 -0.18855,-0.24203 -0.3255,-0.55128 z m -0.94939,-3.91483 q -0.0384,-0.0865 -0.13377,-0.11831 -0.092,-0.0406 -0.1786,-0.002 -0.0866,0.0383 -0.11831,0.13376 -0.0345,0.0892 0.004,0.17584 0.0383,0.0865 0.12758,0.12105 0.0892,0.0345 0.17584,-0.004 0.0866,-0.0383 0.12105,-0.12759 0.0406,-0.092 0.002,-0.17858 z m 4.64293,2.98957 q 0.2026,0.13273 0.45455,0.16703 0.24954,0.0279 0.55295,-0.0877 0.30973,-0.11803 0.50717,-0.35977 0.19504,-0.24806 0.3121,-0.56774 0.11706,-0.31969 0.16819,-0.67941 0.0511,-0.35972 0.0707,-0.70739 0.005,-0.0815 0.0499,-0.13486 0.0424,-0.0596 0.11197,-0.0862 0.10746,-0.0409 0.19955,0.0113 0.0984,0.0494 0.13216,0.13784 0.012,0.0316 0.0154,0.0593 8.8e-4,0.0214 -0.002,0.0515 -0.07,1.127 -0.40287,1.81124 -0.32653,0.68183 -0.97278,0.94258 -0.41719,0.15898 -0.78323,0.11025 -0.36363,-0.0423 -0.65593,-0.22058 -0.29471,-0.18449 -0.51238,-0.47072 -0.21766,-0.28625 -0.34051,-0.60862 -0.12285,-0.32238 -0.15057,-0.62308 -0.0214,-0.30312 0.0469,-0.5608 0.0746,-0.26008 0.23354,-0.45095 0.16524,-0.19327 0.41176,-0.2872 0.14538,-0.0554 0.30853,-0.0452 0.16709,0.001 0.3242,0.0719 0.15473,0.0641 0.28448,0.19563 0.12975,0.13153 0.20683,0.3338 0.0988,0.25917 0.097,0.52044 -0.002,0.26128 -0.0851,0.51745 -0.077,0.25377 -0.22932,0.50002 -0.15228,0.24625 -0.35304,0.46028 z m -0.3462,-0.3386 q 0.16464,-0.15684 0.27449,-0.34349 0.11617,-0.18905 0.17214,-0.38411 0.056,-0.19506 0.0566,-0.38349 -0.002,-0.19476 -0.0669,-0.36543 -0.0723,-0.18963 -0.20321,-0.24831 -0.13336,-0.065 -0.25978,-0.0168 -0.17067,0.065 -0.25464,0.20562 -0.084,0.14058 -0.102,0.32119 -0.018,0.18061 0.0163,0.38469 0.0383,0.19536 0.1081,0.37867 0.0434,0.11377 0.1105,0.23297 0.0735,0.11679 0.14842,0.21852 z m 7.20278,-3.07731 q 0.0757,0.34411 0.10112,0.70938 0.0236,0.35876 -0.0558,0.67621 -0.0729,0.31562 -0.27087,0.56103 -0.19984,0.2389 -0.5645,0.34144 -0.22792,0.0641 -0.42388,0.0419 -0.18762,-0.0175 -0.34899,-0.0916 -0.15669,-0.0824 -0.28163,-0.20188 -0.12677,-0.12596 -0.23116,-0.27228 -0.1217,0.44178 -0.37567,0.73806 -0.24929,0.28794 -0.55535,0.37401 -0.24745,0.0696 -0.47496,0.0352 -0.22099,-0.0363 -0.41003,-0.15873 -0.18436,-0.13086 -0.32843,-0.34332 -0.14407,-0.21245 -0.22647,-0.50548 -0.13735,-0.48838 -0.15158,-0.86384 -0.01,-0.38378 0.0305,-0.641 0.0466,-0.25904 0.10665,-0.39539 0.0582,-0.14284 0.0582,-0.14284 0.0216,-0.0483 0.0617,-0.0806 0.0466,-0.0342 0.0987,-0.0489 0.10419,-0.0293 0.19128,0.0305 0.0918,0.0515 0.11925,0.14917 0.0202,0.0716 -0.008,0.17093 -0.0151,0.0464 -0.0621,0.17908 -0.0405,0.13084 -0.0655,0.34166 -0.025,0.21082 -0.0132,0.50263 0.0183,0.28998 0.12268,0.66115 0.10805,0.3842 0.3211,0.54213 0.21122,0.1514 0.49123,0.0727 0.13675,-0.0385 0.2794,-0.15587 0.14082,-0.12393 0.24013,-0.3205 0.0993,-0.19657 0.13575,-0.46681 0.0364,-0.27024 -0.0291,-0.60315 l -0.23032,-1.14386 q -0.021,-0.0995 0.0324,-0.18476 0.0598,-0.0871 0.15751,-0.11457 0.1107,-0.0311 0.19962,0.0352 0.0871,0.0598 0.11639,0.16403 l 0.23053,1.09459 q 0.0775,0.35063 0.18618,0.58709 0.11517,0.23463 0.25863,0.36996 0.14163,0.12882 0.30686,0.16667 0.16341,0.0313 0.33923,-0.0181 0.23443,-0.066 0.35876,-0.24845 0.12435,-0.18254 0.1561,-0.44443 0.0317,-0.2619 -0.0153,-0.57895 -0.0423,-0.32539 -0.13937,-0.67051 -0.11537,-0.41025 -0.23787,-0.67093 -0.1225,-0.26068 -0.14813,-0.35185 -0.0275,-0.0976 0.024,-0.18945 0.0497,-0.0983 0.15384,-0.12758 0.0912,-0.0256 0.17278,0.0145 0.0798,0.0338 0.12494,0.11946 0.0138,0.0242 0.0812,0.13878 0.0674,0.11458 0.1754,0.27391 0.10622,0.15283 0.25233,0.32255 0.15078,0.16137 0.3268,0.28755 0.18253,0.12434 0.38297,0.18743 0.20512,0.0547 0.42652,-0.007 0.12373,-0.0348 0.195557,-0.10419 0.0765,-0.0777 0.11681,-0.15933 0.0403,-0.0816 0.0499,-0.14753 0.0161,-0.0678 0.0189,-0.0826 0.0124,-0.0807 0.06,-0.13634 0.0523,-0.0639 0.12393,-0.084 0.1107,-0.0311 0.199627,0.0352 0.0936,0.0581 0.11924,0.14916 0.022,0.0781 -0.013,0.22853 -0.0285,0.14855 -0.11742,0.30707 -0.0908,0.15201 -0.247457,0.29445 -0.15201,0.1341 -0.366897,0.19453 -0.18885,0.0531 -0.3663,0.0468 -0.17927,-0.0128 -0.34817,-0.0637 -0.16239,-0.0527 -0.31257,-0.13696 -0.15017,-0.0843 -0.28448,-0.18702 z m 7.566554,-1.33191 q 0.47964,1.52366 1.10584,1.46338 0.2424,-0.0234 0.44775,-0.21978 0.2047,-0.20318 0.36861,-0.4772 0.16999,-0.28139 0.29026,-0.58518 0.12025,-0.30379 0.19379,-0.52833 0.0518,-0.16808 0.22011,-0.18428 0.10774,-0.0104 0.18959,0.0633 0.0819,0.0737 0.0909,0.16794 0.005,0.0539 -0.0114,0.0961 -0.0361,0.11901 -0.11163,0.32334 -0.0694,0.19695 -0.18266,0.43212 -0.10717,0.22778 -0.24677,0.47226 -0.13956,0.24449 -0.31733,0.44508 -0.17777,0.2006 -0.38831,0.34318 -0.20444,0.13521 -0.44685,0.15854 -0.45113,0.0434 -0.80414,-0.23521 -0.35366,-0.28536 -0.65866,-0.98314 -0.2571,0.7179 -0.55722,1.05939 -0.30012,0.34149 -0.68393,0.37843 -0.20199,0.0194 -0.39704,-0.0294 -0.19436,-0.0424 -0.35001,-0.17697 -0.15567,-0.13453 -0.26523,-0.35504 -0.11021,-0.22725 -0.14262,-0.56391 -0.0447,-0.4646 0.0793,-0.87069 0.12406,-0.40608 0.35331,-0.70677 0.22864,-0.30743 0.52347,-0.49211 0.30156,-0.18532 0.6113,-0.21514 0.101,-0.01 0.18219,0.0572 0.0806,0.0602 0.0909,0.16795 0.009,0.0943 -0.0444,0.17416 -0.0534,0.0799 -0.15318,0.10308 -0.1994,0.0464 -0.41862,0.16941 -0.21921,0.12304 -0.39568,0.3371 -0.17039,0.20667 -0.26981,0.51526 -0.0927,0.30793 -0.0529,0.71868 0.0324,0.33667 0.18522,0.51224 0.15955,0.17493 0.42215,0.14965 0.10772,-0.0104 0.22374,-0.0759 0.11537,-0.0723 0.23384,-0.25356 0.12519,-0.18194 0.25699,-0.50723 0.13852,-0.32594 0.29191,-0.85037 -0.17149,-0.58152 -0.34028,-1.34678 -0.1688,-0.76527 -0.26082,-1.7214 -0.0402,-0.41746 -0.0567,-0.87119 -0.0171,-0.46046 0.002,-0.89722 0.0185,-0.4435 0.0819,-0.84377 0.0634,-0.40025 0.1763,-0.71012 0.11959,-0.31053 0.29868,-0.49766 0.17842,-0.19385 0.42755,-0.21783 0.2222,-0.0214 0.38874,0.0849 0.16652,0.1063 0.28153,0.31268 0.12173,0.20576 0.19803,0.50421 0.0763,0.29848 0.1113,0.66207 0.0752,0.78106 0.0157,1.5751 -0.0599,0.794 -0.1928,1.5272 -0.12655,0.73253 -0.29045,1.35992 -0.16387,0.62739 -0.30355,1.08254 z m 0.26548,-5.50289 q -0.0162,-0.16833 -0.0484,-0.3623 -0.0255,-0.19462 -0.0821,-0.35906 -0.0505,-0.17182 -0.12213,-0.28046 -0.0716,-0.10864 -0.17262,-0.0989 -0.16833,0.0161 -0.28795,0.32673 -0.11294,0.30987 -0.17396,0.80504 -0.0617,0.48844 -0.0698,1.10767 -0.002,0.61184 0.0573,1.2313 0.0571,0.59254 0.16119,1.18053 0.10416,0.588 0.20948,1.04677 0.14537,-0.53726 0.26795,-1.0995 0.12187,-0.56899 0.19477,-1.15364 0.0796,-0.5853 0.0979,-1.17148 0.0244,-0.59358 -0.0313,-1.17265 z m 5.47609,6.54722 q -0.1691,-0.001 -0.29746,-0.0288 -0.10277,0.20228 -0.24595,0.37723 -0.14313,0.1682 -0.33335,0.2955 -0.18346,0.12736 -0.41393,0.20029 -0.23047,0.0729 -0.50104,0.0712 -0.31792,-0.002 -0.58098,-0.11876 -0.26312,-0.10993 -0.45802,-0.30735 -0.19487,-0.20418 -0.30132,-0.48221 -0.10641,-0.2848 -0.10423,-0.62301 0.003,-0.43293 0.16038,-0.74984 0.15767,-0.32369 0.36195,-0.53209 0.20431,-0.21515 0.40789,-0.31532 0.20362,-0.10692 0.30508,-0.10628 0.11501,6.4e-4 0.16872,0.0619 0.0605,0.0613 0.0598,0.16273 -6.4e-4,0.115 -0.0755,0.17539 -0.068,0.0537 -0.17657,0.1071 -0.10857,0.0534 -0.23099,0.15411 -0.12236,0.0939 -0.23154,0.24204 -0.10237,0.14816 -0.17137,0.35066 -0.0689,0.2025 -0.0705,0.45278 -0.001,0.22322 0.0649,0.41981 0.0664,0.18984 0.19405,0.33271 0.12764,0.13611 0.30299,0.21842 0.1754,0.0755 0.39186,0.0769 0.38557,0.002 0.63697,-0.17179 0.25822,-0.181 0.39528,-0.45746 -0.39775,-0.21226 -0.65232,-0.59947 -0.25457,-0.38722 -0.25149,-0.86749 0.002,-0.38556 0.18667,-0.6279 0.19096,-0.2423 0.49536,-0.24035 0.18264,10e-4 0.34441,0.0902 0.16178,0.089 0.28232,0.27917 0.12731,0.19022 0.19981,0.48832 0.0725,0.29812 0.0698,0.71074 -0.001,0.21645 -0.057,0.45286 0.0405,0.007 0.0811,0.007 0.0405,7e-4 0.0879,8.5e-4 0.22999,10e-4 0.41297,-0.0515 0.18298,-0.053 0.33249,-0.16022 0.14951,-0.10727 0.26559,-0.27564 0.12284,-0.16833 0.23251,-0.39086 0.0205,-0.0404 0.0884,-0.0739 0.0679,-0.0402 0.13555,-0.0397 0.0879,8.5e-4 0.16186,0.0754 0.0807,0.0682 0.08,0.18316 -5.9e-4,0.0541 -0.0278,0.12159 -0.0275,0.0607 -0.0548,0.11464 -0.11629,0.2022 -0.27308,0.3906 -0.15,0.18169 -0.3606,0.32238 -0.20379,0.13399 -0.46136,0.21352 -0.25756,0.0796 -0.57545,0.0707 z m -1.14576,-1.71203 q -5.4e-4,0.12854 0.0321,0.27079 0.0329,0.14228 0.0996,0.28475 0.0735,0.13577 0.17418,0.26494 0.10745,0.12245 0.24894,0.2113 0.0212,-0.14192 0.0225,-0.27718 0.001,-0.18264 -0.0246,-0.37221 -0.0259,-0.18958 -0.079,-0.3455 -0.0463,-0.16264 -0.12012,-0.25782 -0.0738,-0.10193 -0.17522,-0.10257 -0.0405,-6.9e-4 -0.10862,0.0602 -0.0681,0.0604 -0.0694,0.26337 z m 23.32742,-1.53959 q -0.40384,0.32113 -0.9223,0.78383 -0.51846,0.46269 -1.12414,1.0471 -0.51152,0.48608 -1.04059,1.05171 -0.52059,0.56116 -1.01335,1.12386 -0.49075,0.55624 -0.92227,1.08124 -0.42952,0.51854 -0.75243,0.92136 -0.3209,0.39637 -0.51028,0.64225 -0.18738,0.23942 -0.18937,0.24588 -0.11461,0.14156 -0.28263,0.0896 -0.084,-0.026 -0.13263,-0.0977 -0.0466,-0.0782 -0.04,-0.16816 0.002,-0.007 0.0194,-0.29141 0.0263,-0.28937 0.0601,-0.7673 0.0363,-0.48437 0.0808,-1.10794 0.0527,-0.62804 0.10008,-1.30733 0.0558,-0.68375 0.1091,-1.38241 0.0535,-0.69865 0.10608,-1.32671 -0.81088,1.08738 -1.54224,1.89489 -0.7229,0.80304 -1.39766,1.35899 -0.67277,0.54948 -1.30986,0.86925 -0.63063,0.32178 -1.25697,0.44662 -0.61788,0.12037 -1.24393,0.0612 -0.61958,-0.0572 -1.27226,-0.25913 -0.33604,-0.10395 -0.69331,-0.29949 -0.35927,-0.18906 -0.68609,-0.46013 -0.32681,-0.27106 -0.59733,-0.60967 -0.27051,-0.33862 -0.43748,-0.73725 -0.16497,-0.40508 -0.19609,-0.85373 -0.0291,-0.4551 0.12487,-0.95269 0.16196,-0.52344 0.51564,-0.88841 0.35569,-0.37145 0.82647,-0.56566 0.47279,-0.20067 1.0179,-0.22319 0.55157,-0.0205 1.10085,0.14947 0.40066,0.124 0.69531,0.29304 0.30311,0.1646 0.51668,0.34398 0.21358,0.17938 0.35006,0.35614 0.13649,0.17677 0.22082,0.31615 0.0843,0.1394 0.11203,0.23293 0.0297,0.0871 0.0362,0.0891 0.0168,0.0831 -0.003,0.14773 -0.028,0.0904 -0.12306,0.14603 -0.0886,0.0575 -0.19847,0.0236 -0.12925,-0.04 -0.17281,-0.17383 -0.004,-0.008 -0.0674,-0.14832 -0.0609,-0.14631 -0.23866,-0.35 -0.17772,-0.20369 -0.49269,-0.42152 -0.3085,-0.21583 -0.80609,-0.3698 -0.45235,-0.13997 -0.90345,-0.12381 -0.44265,0.0117 -0.82436,0.16978 -0.37524,0.16005 -0.66415,0.45302 -0.28045,0.2885 -0.40843,0.70208 -0.12592,0.40713 -0.0943,0.78515 0.0318,0.37801 0.17593,0.71295 0.14419,0.33493 0.38146,0.62078 0.23728,0.28583 0.52039,0.51506 0.28512,0.22276 0.58823,0.38735 0.31158,0.16014 0.60238,0.25012 0.49112,0.15197 0.9784,0.22485 0.49573,0.0684 1.01207,0.002 0.52279,-0.0648 1.0742,-0.29074 0.5514,-0.22591 1.16433,-0.67353 0.61292,-0.44763 1.28691,-1.13835 0.68044,-0.68874 1.45286,-1.67472 0.23322,-0.29604 0.47597,-0.64578 0.24275,-0.34974 0.49397,-0.70394 0.0661,-0.60267 0.13834,-1.01932 0.0787,-0.41466 0.16072,-0.6796 0.088,-0.28434 0.1852,-0.43836 0.0973,-0.15401 0.1943,-0.21602 0.0991,-0.0685 0.18908,-0.0619 0.092,1.2e-4 0.16957,0.0241 0.0646,0.02 0.13416,0.0699 0.076,0.0519 0.11263,0.16231 0.0451,0.106 0.0383,0.28802 -0.007,0.18199 -0.0947,0.46635 -0.096,0.31018 -0.28011,0.6993 -0.18413,0.38913 -0.45241,0.84426 -0.038,0.42018 -0.0781,0.93885 -0.0405,0.51862 -0.0857,1.07808 -0.0438,0.55295 -0.0888,1.13378 -0.0447,0.58084 -0.0888,1.13378 -0.0438,0.55295 -0.0862,1.0567 -0.0357,0.50575 -0.0639,0.91496 0.31044,-0.38543 0.75442,-0.92782 0.44598,-0.54885 0.97212,-1.15079 0.52813,-0.6084 1.09458,-1.22619 0.5749,-0.62224 1.13674,-1.15648 0.79444,-0.75967 1.4229,-1.28038 0.63046,-0.52718 1.07261,-0.8577 0.44216,-0.33052 0.67862,-0.47686 0.24492,-0.1508 0.26385,-0.16619 0.0931,-0.0491 0.19648,-0.0171 0.10985,0.034 0.15048,0.13153 0.0491,0.0931 0.0191,0.19002 -0.014,0.0453 -0.0474,0.0844 -0.002,0.007 -0.13753,0.16987 -0.12707,0.15895 -0.34337,0.44606 -0.20783,0.28266 -0.47751,0.67363 -0.26767,0.38452 -0.55088,0.84211 -0.2812,0.45113 -0.55257,0.96196 -0.26289,0.50637 -0.47409,1.02873 -0.0953,0.23957 -0.19227,0.50698 -0.0949,0.26095 -0.17888,0.53236 -0.13197,0.4265 -0.22717,0.87146 -0.0952,0.44497 -0.12873,0.87362 -0.0335,0.42864 0.0116,0.83205 0.0471,0.39695 0.19132,0.73188 0.14419,0.33493 0.40439,0.59247 0.26666,0.25953 0.67624,0.40043 0.1014,0.0384 0.13356,0.14045 0.0406,0.0975 0.0126,0.18802 -0.028,0.0904 -0.12107,0.13956 -0.0931,0.0491 -0.19002,0.0191 -0.10339,-0.032 -0.20078,-0.0833 -0.44529,-0.20859 -0.73872,-0.51889 -0.29144,-0.31676 -0.45794,-0.69401 -0.16451,-0.3837 -0.22101,-0.81895 -0.0481,-0.43973 -0.0155,-0.91115 0.0324,-0.47143 0.13329,-0.95716 0.10921,-0.49019 0.25916,-0.97485 0.17795,-0.57514 0.41407,-1.13228 0.23612,-0.55713 0.50101,-1.06997 0.2669,-0.51928 0.5541,-0.98981 0.28721,-0.47051 0.55889,-0.86795 z m 2.69532,10.63573 q -0.1493,-0.0794 -0.25005,-0.16369 -0.1849,0.1315 -0.39291,0.22006 -0.20484,0.0826 -0.43241,0.10709 -0.22161,0.0276 -0.4596,-0.0147 -0.238,-0.0423 -0.47687,-0.16942 -0.28069,-0.14932 -0.45958,-0.37476 -0.18207,-0.21945 -0.26312,-0.48477 -0.0779,-0.27129 -0.0431,-0.56698 0.0379,-0.30165 0.19674,-0.60024 0.20334,-0.38221 0.49002,-0.58982 0.28985,-0.21357 0.5675,-0.30339 0.28082,-0.0958 0.50763,-0.09 0.23,-2.2e-4 0.31958,0.0474 0.10151,0.0541 0.1207,0.13317 0.0252,0.0823 -0.0225,0.17193 -0.054,0.10152 -0.14829,0.12031 -0.0851,0.016 -0.2061,0.0129 -0.12097,-0.003 -0.27612,0.0293 -0.15198,0.0265 -0.31742,0.10697 -0.15947,0.0837 -0.31451,0.23111 -0.15504,0.14739 -0.27259,0.36834 -0.10482,0.19709 -0.13725,0.40204 -0.0293,0.19898 0.0175,0.38475 0.05,0.17981 0.16707,0.33408 0.12033,0.1483 0.31142,0.24996 0.3404,0.1811 0.64397,0.14338 0.31271,-0.0405 0.56241,-0.22182 -0.25385,-0.37258 -0.29969,-0.8337 -0.0459,-0.46114 0.17974,-0.88514 0.18109,-0.3404 0.45671,-0.46961 0.28159,-0.12603 0.55033,0.0169 0.16124,0.0858 0.26326,0.23966 0.10202,0.15389 0.12056,0.3783 0.0245,0.22757 -0.0496,0.52528 -0.0741,0.29772 -0.2679,0.66201 -0.10173,0.19109 -0.26065,0.3747 0.0327,0.025 0.0685,0.0442 0.0358,0.019 0.0776,0.0412 0.20305,0.10803 0.38971,0.14602 0.18666,0.038 0.36888,0.0123 0.18221,-0.0257 0.36317,-0.12094 0.18691,-0.0921 0.38731,-0.23835 0.0369,-0.0263 0.11258,-0.0244 0.0787,-0.004 0.1385,0.0278 0.0776,0.0413 0.10838,0.14194 0.0399,0.0979 -0.0141,0.19937 -0.0254,0.0478 -0.0811,0.0948 -0.0524,0.041 -0.10178,0.0761 -0.19684,0.12514 -0.42316,0.21928 -0.21716,0.0914 -0.46901,0.11827 -0.2427,0.0241 -0.50777,-0.0248 -0.26505,-0.0491 -0.54256,-0.20436 z m -0.22056,-2.04822 q -0.0604,0.11347 -0.0972,0.25477 -0.0369,0.14129 -0.0438,0.29847 0.002,0.1544 0.0314,0.31552 0.0384,0.15833 0.12247,0.30268 0.0847,-0.11588 0.14818,-0.23532 0.0858,-0.16124 0.15085,-0.34116 0.0651,-0.17992 0.0904,-0.34269 0.0345,-0.16557 0.0129,-0.28414 -0.0181,-0.12453 -0.10762,-0.17219 -0.0358,-0.019 -0.12414,0.003 -0.0884,0.022 -0.18363,0.20114 z m 4.244,2.99538 q -0.53222,1.50607 0.005,1.8342 0.20777,0.12702 0.48996,0.0934 0.28572,-0.0394 0.58139,-0.15991 0.30498,-0.12277 0.58366,-0.29332 0.27869,-0.17055 0.47239,-0.30584 0.1424,-0.10324 0.28667,-0.015 0.0924,0.0565 0.11349,0.16451 0.0212,0.10807 -0.0282,0.18887 -0.0282,0.0462 -0.0667,0.0702 -0.1004,0.0734 -0.2835,0.19139 -0.17382,0.11573 -0.40568,0.23563 -0.22256,0.11764 -0.48104,0.22919 -0.25847,0.11156 -0.52111,0.16506 -0.26262,0.0535 -0.51659,0.041 -0.24463,-0.0153 -0.45244,-0.14181 -0.38669,-0.23639 -0.50142,-0.67123 -0.1112,-0.44062 0.0644,-1.18164 -0.63691,0.41933 -1.08201,0.51193 -0.4451,0.0926 -0.77407,-0.10847 -0.17315,-0.10584 -0.29946,-0.26235 -0.12985,-0.15074 -0.17343,-0.3518 -0.0435,-0.20106 0.001,-0.44316 0.0485,-0.24787 0.22487,-0.53643 0.24344,-0.39824 0.5866,-0.6483 0.34315,-0.25006 0.70712,-0.35263 0.3675,-0.10832 0.71414,-0.0788 0.35237,0.0335 0.61788,0.19539 0.0866,0.053 0.11126,0.15521 0.0282,0.0965 -0.0282,0.18887 -0.0494,0.0808 -0.14015,0.11253 -0.0907,0.0317 -0.18441,-0.009 -0.18726,-0.0827 -0.43641,-0.11616 -0.24915,-0.0334 -0.51884,0.0317 -0.26039,0.0628 -0.52529,0.24971 -0.25913,0.19043 -0.47435,0.54249 -0.17641,0.28858 -0.15978,0.52074 0.0224,0.2357 0.24749,0.3733 0.0924,0.0565 0.22447,0.0738 0.1356,0.012 0.33927,-0.0622 0.20941,-0.0702 0.51022,-0.25101 0.30658,-0.17727 0.74435,-0.50428 0.21237,-0.56787 0.53732,-1.28097 0.32495,-0.71312 0.82596,-1.53266 0.21874,-0.35783 0.47822,-0.7304 0.263,-0.37834 0.54076,-0.71596 0.28128,-0.34339 0.57248,-0.62521 0.29121,-0.28182 0.56765,-0.46167 0.28222,-0.17632 0.53779,-0.21828 0.25911,-0.0477 0.47266,0.0828 0.19045,0.11643 0.25969,0.30146 0.0693,0.18504 0.0371,0.41911 -0.0264,0.23762 -0.14471,0.52203 -0.11836,0.28441 -0.30889,0.59606 -0.40927,0.66949 -0.93398,1.26841 -0.52471,0.59892 -1.07184,1.10485 -0.54137,0.50945 -1.04937,0.91245 -0.508,0.40299 -0.89315,0.68287 z m 3.51902,-4.23897 q 0.0882,-0.14428 0.17898,-0.31872 0.0966,-0.17089 0.15012,-0.33635 0.0629,-0.1677 0.0709,-0.29756 0.008,-0.12987 -0.0785,-0.18279 -0.14429,-0.0882 -0.42651,0.0881 -0.27644,0.17985 -0.62281,0.53894 -0.34286,0.35332 -0.72163,0.84324 -0.36949,0.48767 -0.69409,1.01864 -0.31048,0.50789 -0.58056,1.04047 -0.27009,0.53259 -0.4616,0.96256 0.43905,-0.34207 0.87489,-0.71782 0.43938,-0.38153 0.84893,-0.80506 0.41533,-0.42001 0.78225,-0.87754 0.37621,-0.45978 0.67964,-0.95611 z m -1.3964,7.05722 q 0.007,0.24208 0.12385,0.46815 0.12019,0.22048 0.38891,0.40273 0.27431,0.18605 0.58557,0.20917 0.31504,0.018 0.64409,-0.0699 0.32904,-0.0874 0.65305,-0.25182 0.32401,-0.1644 0.62004,-0.34778 0.0698,-0.0426 0.13912,-0.0364 0.0731,8.6e-4 0.13475,0.0423 0.0951,0.0646 0.10559,0.1697 0.016,0.10894 -0.0371,0.18732 -0.019,0.028 -0.0398,0.0466 -0.017,0.013 -0.0434,0.0278 -0.96342,0.58895 -1.71484,0.70867 -0.74583,0.12351 -1.33005,-0.25638 -0.36948,-0.2506 -0.53948,-0.57841 -0.17379,-0.32222 -0.19546,-0.66385 -0.0179,-0.34724 0.0918,-0.68971 0.1097,-0.34246 0.30332,-0.62797 0.19364,-0.28552 0.4241,-0.48068 0.23605,-0.19136 0.48631,-0.28318 0.25586,-0.088 0.50335,-0.0673 0.25307,0.0249 0.47142,0.17261 0.12877,0.0874 0.21396,0.22685 0.0946,0.13772 0.12701,0.30683 0.0362,0.16351 0.003,0.34524 -0.0333,0.18172 -0.15485,0.36087 -0.15568,0.22953 -0.37075,0.37791 -0.21507,0.14838 -0.47273,0.227 -0.25206,0.0824 -0.54112,0.0989 -0.28906,0.0164 -0.57955,-0.0253 z m 0.0788,-0.4778 q 0.22291,0.0449 0.43877,0.0282 0.2215,-0.0132 0.4134,-0.0793 0.19189,-0.066 0.34661,-0.17361 0.1585,-0.11317 0.26101,-0.26433 0.11391,-0.16795 0.0869,-0.30887 -0.0232,-0.14653 -0.13519,-0.22247 -0.15115,-0.10257 -0.31448,-0.0907 -0.16331,0.0118 -0.32162,0.10062 -0.15831,0.0888 -0.3058,0.23396 -0.13812,0.14337 -0.24822,0.30571 -0.0683,0.10077 -0.1275,0.22413 -0.0536,0.12716 -0.0939,0.24691 z m 5.96787,3.38348 q -0.15171,0.082 -0.37207,0.18934 -0.21091,0.10586 -0.46111,0.20821 -0.2502,0.10236 -0.52774,0.18481 -0.27356,0.077 -0.55059,0.10125 -0.26757,0.0228 -0.5227,-0.0288 -0.25363,-0.0423 -0.46692,-0.19762 -0.32815,-0.23884 -0.41603,-0.61236 -0.0879,-0.37354 -0.0132,-0.82111 0.0748,-0.44757 0.27338,-0.93886 0.20807,-0.49278 0.46786,-0.96465 0.26376,-0.47734 0.54044,-0.90346 0.28214,-0.42212 0.51302,-0.73934 0.33438,-0.4594 0.72,-0.93173 0.39107,-0.46834 0.79904,-0.89091 0.40798,-0.42259 0.81293,-0.77207 0.41043,-0.34548 0.77804,-0.56318 0.37309,-0.21371 0.68891,-0.26829 0.31583,-0.0546 0.54552,0.11259 0.1805,0.13136 0.259,0.32237 0.088,0.18951 0.047,0.45259 -0.0409,0.26307 -0.20912,0.60915 -0.16822,0.34609 -0.49066,0.78908 -0.39807,0.54692 -0.93886,1.04853 -0.5368,0.49614 -1.16361,0.9435 -0.62681,0.44736 -1.32471,0.84298 -0.69392,0.39015 -1.40623,0.72508 -0.36882,0.7941 -0.42971,1.36054 -0.0569,0.56098 0.26578,0.79583 0.21876,0.15923 0.54452,0.13698 0.32974,-0.0278 0.67046,-0.1395 0.34071,-0.11178 0.64165,-0.26087 0.31039,-0.15057 0.48898,-0.24649 0.0672,-0.0348 0.13627,-0.0263 0.0731,0.003 0.13328,0.0468 0.093,0.0677 0.0999,0.17311 0.0123,0.10941 -0.0473,0.19146 -0.0238,0.0328 -0.0855,0.0716 z m -1.13981,-4.19295 q -0.25476,0.35004 -0.47321,0.68465 -0.21846,0.33463 -0.40607,0.64987 0.55214,-0.27581 1.12221,-0.62224 0.57405,-0.3519 1.10287,-0.74509 0.53279,-0.39866 0.99199,-0.83415 0.46865,-0.43698 0.80304,-0.89639 0.46971,-0.64536 0.56882,-0.99992 0.0991,-0.35456 -0.0759,-0.48195 -0.11484,-0.0836 -0.33967,-0.005 -0.21936,0.083 -0.51137,0.28876 -0.29201,0.20578 -0.63927,0.52196 -0.34726,0.31617 -0.71244,0.70295 -0.35972,0.39078 -0.73089,0.83177 -0.36571,0.44497 -0.70009,0.90438 z m 2.58138,6.76864 q -0.13341,-0.10389 -0.21818,-0.20423 -0.20475,0.0977 -0.4249,0.1492 -0.21599,0.0462 -0.44439,0.0311 -0.22306,-0.0109 -0.45024,-0.0934 -0.22717,-0.0827 -0.44063,-0.2489 -0.25082,-0.19537 -0.38828,-0.4482 -0.14163,-0.2475 -0.17584,-0.52281 -0.03,-0.28064 0.055,-0.56594 0.0892,-0.29065 0.29703,-0.55748 0.26603,-0.34155 0.58415,-0.49677 0.32226,-0.16055 0.61121,-0.20128 0.29312,-0.046 0.51557,-0.001 0.2266,0.0394 0.30666,0.1017 0.0907,0.0707 0.096,0.15195 0.0106,0.0854 -0.0517,0.16549 -0.0707,0.0907 -0.16678,0.093 -0.0867,0.001 -0.20525,-0.0227 -0.11864,-0.0238 -0.27705,-0.0186 -0.15425,-1.4e-4 -0.33109,0.0508 -0.17149,0.055 -0.34956,0.17359 -0.17807,0.11853 -0.33187,0.31598 -0.13718,0.17611 -0.20435,0.37244 -0.063,0.19099 -0.0489,0.38203 0.0183,0.18572 0.10713,0.35783 0.093,0.16678 0.26379,0.29979 0.30419,0.23694 0.60973,0.25199 0.31501,0.014 0.59218,-0.1218 -0.186,-0.41069 -0.15186,-0.87283 0.0338,-0.46217 0.32927,-0.84104 0.23693,-0.30418 0.53066,-0.38407 0.29907,-0.0757 0.53922,0.11127 0.14409,0.11223 0.21813,0.28137 0.074,0.16914 0.0537,0.39338 -0.015,0.2284 -0.13919,0.50894 -0.12419,0.28054 -0.37775,0.60607 -0.13301,0.17077 -0.32119,0.3243 0.0279,0.0303 0.0599,0.0552 0.032,0.025 0.0694,0.054 0.18144,0.14133 0.35878,0.21087 0.17734,0.0695 0.36126,0.0756 0.1839,0.006 0.37855,-0.0567 0.19999,-0.0587 0.42254,-0.1682 0.041,-0.0195 0.1151,-0.005 0.0784,0.009 0.13167,0.0511 0.0694,0.054 0.0823,0.15846 0.0225,0.10325 -0.0482,0.19397 -0.0332,0.0427 -0.0962,0.0794 -0.0587,0.0314 -0.11336,0.0575 -0.21542,0.0894 -0.45455,0.14325 -0.22964,0.0527 -0.48237,0.0358 -0.2432,-0.0182 -0.4959,-0.1119 -0.25267,-0.0939 -0.49934,-0.29462 z m 0.13488,-2.05563 q -0.079,0.1014 -0.13959,0.23426 -0.0607,0.13284 -0.0945,0.28649 -0.0244,0.15246 -0.0231,0.31621 0.0105,0.16257 0.0686,0.31924 0.10335,-0.0996 0.18644,-0.20633 0.11223,-0.14409 0.20728,-0.31014 0.095,-0.16605 0.14794,-0.32204 0.0624,-0.15719 0.0619,-0.27761 0.003,-0.1258 -0.0764,-0.18813 -0.032,-0.025 -0.1228,-0.0185 -0.0907,0.006 -0.21547,0.16656 z"
       id="text5-7"
       aria-label="Preview do Modelo" /></g></svg>
